<svg id="spiral" data-name="sprial" xmlns="http://www.w3.org/2000/svg" viewBox="0 0 900.44 980.94"><defs><style>.spiral{fill:#4d4d4d; };</style></defs><title>spiral1</title><path class="spiral" d="M500,73A408.19,408.19,0,0,0,85.43,475.33a396.37,396.37,0,0,0,7,80.5,401.57,401.57,0,0,0,23.25,77.67,425.17,425.17,0,0,0,89.92,135.36,435.64,435.64,0,0,0,134.41,93.08A409,409,0,0,0,500,897.06l47.73.55-37.66,28.66h0l-9.37-29.21a355,355,0,0,0,150.51-24.32c47.83-18.84,91.63-48.1,128.56-84.51A437.17,437.17,0,0,0,868.94,661,452.6,452.6,0,0,0,909.4,510.12c4.52-52.28.86-105.55-12.47-156.48a399.42,399.42,0,0,0-27.26-74,366.23,366.23,0,0,0-42-66.87A351,351,0,0,0,772,156.63a356.59,356.59,0,0,0-67.07-42.37A385,385,0,0,0,630.1,87.14q-19.38-4.86-39.17-7.87c-6.59-1-13.2-1.85-19.83-2.58-3.32-.32-6.64-.69-10-1l-5-.38-2.49-.19-1.25-.1-.63,0-.31,0c-.09-.15-.22.31-.29-.34.13-.64.21-.17.33-.31l.31,0,.62,0,1.26.06,2.5.13,5,.26c3.33.19,6.66.48,10,.72,6.66.57,13.31,1.23,19.95,2.09,13.27,1.7,26.48,4,39.55,6.93a388.31,388.31,0,0,1,76.22,25.48,362.78,362.78,0,0,1,69.18,41.33,358.6,358.6,0,0,1,58.32,56,375.73,375.73,0,0,1,44.77,67.53,411.88,411.88,0,0,1,29.95,75.42,454.33,454.33,0,0,1,15.33,79.78A499.51,499.51,0,0,1,926,511.38,471.14,471.14,0,0,1,887.8,669.51,460,460,0,0,1,797.29,805.6a425.3,425.3,0,0,1-62.74,53.56,399.81,399.81,0,0,1-72.49,40.13,384.38,384.38,0,0,1-79.63,24,390.46,390.46,0,0,1-83.12,6.4l-44.2-1.29,34.83-27.91h0L500,929.74A443.9,443.9,0,0,1,325.57,896a474.56,474.56,0,0,1-149-97.8A468.42,468.42,0,0,1,73.85,651.44,446,446,0,0,1,35.59,475.23a459.7,459.7,0,0,1,33.72-177.8A464.46,464.46,0,0,1,169.45,145.74,470.13,470.13,0,0,1,408.38,15.89,478.93,478.93,0,0,1,500,6Z" transform="translate(-35.57 -5.96)"/></svg>